<svg width="40" height="48" viewBox="0 0 40 48" fill="none" xmlns="http://www.w3.org/2000/svg">
<path d="M19.9531 47.3828C19.7656 47.3828 19.5312 47.3438 19.25 47.2656C18.9688 47.1875 18.6797 47.0703 18.3828 46.9141C15.0547 45.0391 12.2422 43.375 9.94531 41.9219C7.66406 40.4688 5.82812 39.0625 4.4375 37.7031C3.04688 36.3438 2.03906 34.875 1.41406 33.2969C0.789062 31.7188 0.476562 29.8594 0.476562 27.7188V9.78906C0.476562 8.55469 0.734375 7.67188 1.25 7.14062C1.78125 6.59375 2.53906 6.11719 3.52344 5.71094C4.07031 5.47656 4.82812 5.17188 5.79688 4.79688C6.76562 4.42188 7.83594 4.01563 9.00781 3.57812C10.1797 3.14062 11.3438 2.71094 12.5 2.28906C13.6719 1.85156 14.7422 1.46875 15.7109 1.14062C16.6797 0.796875 17.4453 0.546875 18.0078 0.390625C18.3203 0.3125 18.6406 0.234375 18.9688 0.15625C19.2969 0.078125 19.625 0.0390625 19.9531 0.0390625C20.2812 0.0390625 20.6094 0.078125 20.9375 0.15625C21.2812 0.21875 21.6094 0.296875 21.9219 0.390625C22.4688 0.578125 23.2266 0.84375 24.1953 1.1875C25.1641 1.53125 26.2344 1.91406 27.4062 2.33594C28.5781 2.75781 29.7422 3.1875 30.8984 3.625C32.0703 4.04688 33.1406 4.44531 34.1094 4.82031C35.0781 5.17969 35.8359 5.47656 36.3828 5.71094C37.3828 6.13281 38.1406 6.60937 38.6562 7.14062C39.1719 7.67188 39.4297 8.55469 39.4297 9.78906V27.7188C39.4297 29.8594 39.1172 31.7266 38.4922 33.3203C37.8828 34.8984 36.8828 36.3672 35.4922 37.7266C34.1016 39.0859 32.2578 40.4844 29.9609 41.9219C27.6797 43.375 24.8672 45.0391 21.5234 46.9141C21.2266 47.0703 20.9375 47.1875 20.6562 47.2656C20.375 47.3438 20.1406 47.3828 19.9531 47.3828ZM19.9531 43.1406C20.1406 43.1406 20.3438 43.0938 20.5625 43C20.7812 42.9219 21.0625 42.7812 21.4062 42.5781C24.1094 40.9375 26.375 39.5234 28.2031 38.3359C30.0469 37.1484 31.5156 36.0234 32.6094 34.9609C33.7188 33.8984 34.5078 32.7344 34.9766 31.4688C35.4609 30.2031 35.7031 28.6641 35.7031 26.8516V10.5156C35.7031 10.125 35.6484 9.82813 35.5391 9.625C35.4453 9.42187 35.2422 9.26563 34.9297 9.15625C34.1953 8.90625 33.3516 8.61719 32.3984 8.28906C31.4609 7.94531 30.4688 7.58594 29.4219 7.21094C28.3906 6.83594 27.3516 6.46094 26.3047 6.08594C25.2734 5.69531 24.2891 5.32813 23.3516 4.98438C22.4141 4.625 21.5938 4.30469 20.8906 4.02344C20.7031 3.94531 20.5312 3.89062 20.375 3.85938C20.2188 3.82813 20.0781 3.8125 19.9531 3.8125C19.8281 3.8125 19.6875 3.82813 19.5312 3.85938C19.375 3.89062 19.2031 3.94531 19.0156 4.02344C18.3125 4.30469 17.4922 4.61719 16.5547 4.96094C15.6172 5.30469 14.625 5.66406 13.5781 6.03906C12.5312 6.39844 11.4844 6.76562 10.4375 7.14062C9.39062 7.51562 8.39844 7.875 7.46094 8.21875C6.52344 8.5625 5.70312 8.875 5 9.15625C4.67188 9.28125 4.45312 9.44531 4.34375 9.64844C4.25 9.83594 4.20312 10.125 4.20312 10.5156V26.8516C4.20312 28.6641 4.44531 30.2031 4.92969 31.4688C5.41406 32.7344 6.20312 33.9062 7.29688 34.9844C8.39062 36.0469 9.85156 37.1719 11.6797 38.3594C13.5234 39.5312 15.7969 40.9375 18.5 42.5781C18.8438 42.7812 19.125 42.9219 19.3438 43C19.5625 43.0938 19.7656 43.1406 19.9531 43.1406ZM11.4922 31.8203V22.4922C11.4922 20.8828 12.1797 20.0312 13.5547 19.9375V17.1719C13.5547 15.0156 14.1406 13.2734 15.3125 11.9453C16.5 10.6172 18.0469 9.95312 19.9531 9.95312C21.8594 9.95312 23.3984 10.6172 24.5703 11.9453C25.7578 13.2734 26.3516 15.0156 26.3516 17.1719V19.9375C27.7422 20.0312 28.4375 20.8828 28.4375 22.4922V31.8203C28.4375 33.5391 27.6328 34.3984 26.0234 34.3984H13.8828C12.2891 34.3984 11.4922 33.5391 11.4922 31.8203ZM15.9922 19.9141H23.9141V16.9141C23.9141 15.5391 23.5469 14.4297 22.8125 13.5859C22.0938 12.7422 21.1406 12.3203 19.9531 12.3203C18.7656 12.3203 17.8047 12.7422 17.0703 13.5859C16.3516 14.4297 15.9922 15.5391 15.9922 16.9141V19.9141Z" fill="#086B5A"/>
</svg>
